<svg version="1.1" xmlns="http://www.w3.org/2000/svg" viewBox="0 0 892.4496459960938 792.1480560302734" width="1784.8992919921875" height="1584.2961120605469">
  <!-- svg-source:excalidraw -->
  
  <defs>
    <style>
      @font-face {
        font-family: "Virgil";
        src: url("https://excalidraw.com/Virgil.woff2");
      }
      @font-face {
        font-family: "Cascadia";
        src: url("https://excalidraw.com/Cascadia.woff2");
      }
    </style>
  </defs>
  <rect x="0" y="0" width="892.4496459960938" height="792.1480560302734" fill="#ffffff"></rect><g stroke-linecap="round" transform="translate(10 296.48121643066406) rotate(0 436.2248229980469 242.8334197998047)"><path d="M-0.7 -0.34 C300.65 -2.09, 602.48 -2.29, 872.76 -0.03 M-0.01 0.35 C329.11 -2.79, 658.36 -2.91, 872.79 -0.2 M871.83 0.25 C870.04 185.37, 870.07 372.33, 872.08 485.52 M872.79 0.2 C873.17 190.15, 873.07 380.16, 872.67 485.99 M871.75 485.24 C632.76 484.13, 392.13 482.85, 0.05 485.85 M872.18 485.94 C562.94 485.13, 252.81 485.39, 0.01 485.38 M0.04 485.36 C-1.53 382.26, -2.57 280.06, -0.33 -0.79 M-0.32 485.58 C-1.79 361.53, -1.92 237.58, -0.36 0.04" stroke="#000000" stroke-width="1" fill="none"></path></g><g stroke-linecap="round" transform="translate(162.04901123046875 502.27366638183594) rotate(0 123.29852294921875 73.88385009765625)"><path d="M0.52 -0.98 C71.99 2.44, 147.26 2.18, 245.87 1 M-0.41 0.32 C49.87 -0.1, 99.97 -0.99, 245.89 -0.63 M247.34 -1.66 C244.57 49.88, 246.69 95.51, 246.79 146.21 M246.6 0.62 C247.38 49.96, 247.91 100.87, 247.16 148.7 M246.56 149.4 C152 145.97, 59.33 146.35, -0.97 146.53 M246.19 147.17 C152.85 148.44, 60.3 148.94, -0.7 148.46 M-1.2 148.54 C-0.04 87.64, 0.91 32.08, 1.81 1.58 M-0.6 146.84 C0.83 103.95, 1.27 60.71, -0.42 -0.85" stroke="#000000" stroke-width="1" fill="none"></path></g><g stroke-linecap="round" transform="translate(558.0462036132812 498.5074920654297) rotate(0 129.55889892578125 77.34124755859375)"><path d="M-0.94 -1.21 C65.47 2.18, 128.82 -0.19, 257.95 -0.64 M-0.69 0.67 C83.89 -1.24, 166.21 -2.17, 259.43 0.32 M260.93 1.58 C260.38 33.22, 259.26 67.27, 257.27 154.83 M258.7 -0.85 C260.33 44.4, 260.82 90.09, 259.24 155.25 M259.71 153.94 C161.86 152.08, 65.72 152.86, -0.32 155.14 M258.56 154.54 C170.18 153.72, 81.93 153.4, 0.05 155.27 M-1.69 155.8 C1.26 116.98, -1.69 82.9, -0.99 -1.31 M0.37 154.48 C-0.89 118.49, 0.78 80.53, 0.95 0.85" stroke="#000000" stroke-width="1" fill="none"></path></g><g stroke-linecap="round" transform="translate(132.58245849609375 265.6945343017578) rotate(0 54.77166748046875 14.145767211914062)"><path d="M-1.42 1.31 C39.34 1.4, 77.8 0.99, 108.46 -0.82 M0.84 0.05 C41.9 -0.35, 83.16 -0.5, 110.08 -0.06 M108.58 -0.65 C109.41 10.65, 108.83 21.26, 109.5 29.86 M109.05 0.87 C109.55 5.98, 109.03 13.73, 110.25 27.6 M108.02 28.27 C70.13 28.39, 30.58 26.8, -1.35 26.72 M109.01 28.8 C71.02 28.18, 30.81 27.93, -0.35 27.79 M0.07 27.72 C1.16 18.3, 0.1 9.69, -1.42 1.12 M-0.46 28.1 C0.98 19.96, 0.88 11.61, 0.06 -0.84" stroke="#000000" stroke-width="1" fill="none"></path></g><g stroke-linecap="round" transform="translate(606.74853515625 263.24705505371094) rotate(0 46.529327392578125 14.919189453125)"><path d="M1.45 -1.42 C34.3 -0.24, 65.45 1.2, 92.14 -0.39 M-0.28 0.06 C35.01 -1, 71.08 -1.42, 92.43 -0.38 M91.97 -0.25 C92.54 9.97, 92.63 18.1, 91.1 30.05 M93.54 -0.22 C93.14 7, 93.24 12.83, 93.49 30.12 M91.85 28.05 C66.13 28.99, 35.64 31.31, 1.64 28 M93.23 30.81 C57.44 30.19, 22.35 30.22, -0.11 29.16 M1.07 31.49 C-0.18 25.6, -1.9 17.37, 1.37 1.13 M0.17 29.17 C-0.98 19.72, -1.04 10.34, -0.22 0.53" stroke="#000000" stroke-width="1" fill="none"></path></g><g transform="translate(175.7867431640625 504.7793426513672) rotate(0 95.5 20)"><text x="0" y="14" font-family="Virgil, Segoe UI Emoji" font-size="16px" fill="#000000" text-anchor="start" style="white-space: pre;" direction="ltr">cnetns0 (Container/Child</text><text x="0" y="34" font-family="Virgil, Segoe UI Emoji" font-size="16px" fill="#000000" text-anchor="start" style="white-space: pre;" direction="ltr">Namespace)</text></g><g transform="translate(565.998241373698 503.1842204502651) rotate(0 96 20)"><text x="0" y="14" font-family="Virgil, Segoe UI Emoji" font-size="16px" fill="#000000" text-anchor="start" style="white-space: pre;" direction="ltr">cnetns1 (Container/Child </text><text x="0" y="34" font-family="Virgil, Segoe UI Emoji" font-size="16px" fill="#000000" text-anchor="start" style="white-space: pre;" direction="ltr">Namespace)</text></g><g transform="translate(452.96063232421875 681.7724456787109) rotate(0 22.5 10)"><text x="22.5" y="14" font-family="Virgil, Segoe UI Emoji" font-size="16px" fill="#000000" text-anchor="middle" style="white-space: pre;" direction="ltr">br_fe</text></g><g transform="translate(167.35415649414062 269.29417419433594) rotate(0 28 10)"><text x="28" y="14" font-family="Virgil, Segoe UI Emoji" font-size="16px" fill="#000000" text-anchor="middle" style="white-space: pre;" direction="ltr">enp8s0</text></g><g transform="translate(624.4324340820312 266.05873107910156) rotate(0 26 10)"><text x="26" y="14" font-family="Virgil, Segoe UI Emoji" font-size="16px" fill="#000000" text-anchor="middle" style="white-space: pre;" direction="ltr">enp7s0</text></g><g stroke-linecap="round" transform="translate(97.21124267578125 415.2283172607422) rotate(0 368.49072265625 165.19891357421875)"><path d="M-0.46 -0.78 C287.26 1.27, 573.69 2.51, 737.47 0.72 M0.08 -0.22 C230.31 2.55, 460.56 2.05, 737.37 -0.35 M737.17 -0.4 C735.5 125.34, 736.77 250.05, 736.62 331.61 M736.37 -0.49 C737.74 74.82, 737.1 148.24, 736.38 329.82 M737.57 331.14 C489.2 329.27, 240.33 328.79, 0.4 330.3 M736.78 330.11 C532.42 331.91, 328.46 331.63, 0.34 330.56 M0.6 330.56 C-0.56 233.29, 0.1 135.52, -0.06 -0.23 M0.68 330.44 C2.76 225.29, 2.46 120.99, -0.01 0.56" stroke="#000000" stroke-width="1" fill="none"></path></g><g transform="translate(199.09356689453125 257.8700408935547) rotate(0 59.69232177734375 -90.24838256835938)" stroke="none" fill="#000000"><path d="M -1.58,0.31 Q -1.58,0.31 -2.11,-2.59 -2.65,-5.51 -3.02,-6.87 -3.40,-8.23 -5.60,-15.32 -7.81,-22.42 -9.90,-29.47 -11.99,-36.52 -13.29,-43.18 -14.59,-49.84 -15.11,-56.45 -15.63,-63.05 -15.55,-69.27 -15.48,-75.48 -13.92,-84.17 -12.37,-92.85 -10.57,-99.13 -8.76,-105.41 -6.62,-110.40 -4.47,-115.38 -2.26,-119.25 -0.04,-123.12 1.87,-125.85 3.79,-128.58 5.47,-130.62 7.15,-132.67 10.31,-135.57 13.47,-138.46 16.73,-140.89 20.00,-143.31 23.92,-145.54 27.84,-147.77 31.40,-149.53 34.97,-151.29 38.76,-152.95 42.55,-154.60 46.42,-156.28 50.29,-157.96 54.66,-159.63 59.02,-161.29 63.70,-162.92 68.39,-164.55 72.80,-165.97 77.20,-167.40 81.97,-168.85 86.73,-170.30 90.94,-171.57 95.14,-172.85 99.56,-174.10 103.97,-175.35 107.99,-176.48 112.02,-177.60 115.31,-178.37 118.61,-179.14 121.45,-179.67 124.30,-180.20 126.12,-180.55 127.93,-180.90 130.92,-181.53 133.91,-182.15 134.19,-182.16 134.47,-182.17 134.74,-182.09 135.01,-182.01 135.24,-181.84 135.46,-181.68 135.63,-181.45 135.79,-181.22 135.88,-180.95 135.96,-180.69 135.95,-180.40 135.95,-180.12 135.85,-179.86 135.75,-179.60 135.58,-179.38 135.40,-179.16 135.17,-179.00 134.93,-178.85 134.66,-178.78 134.38,-178.72 134.10,-178.74 133.82,-178.76 133.56,-178.87 133.31,-178.98 133.10,-179.17 132.89,-179.36 132.75,-179.60 132.61,-179.84 132.55,-180.12 132.50,-180.40 132.54,-180.68 132.58,-180.95 132.70,-181.21 132.82,-181.46 133.02,-181.66 133.22,-181.86 133.47,-181.98 133.72,-182.11 134.00,-182.15 134.28,-182.18 134.56,-182.13 134.83,-182.08 135.08,-181.94 135.32,-181.80 135.51,-181.60 135.70,-181.39 135.81,-181.13 135.92,-180.87 135.95,-180.59 135.97,-180.31 135.90,-180.04 135.84,-179.76 135.69,-179.53 135.53,-179.29 135.32,-179.11 135.10,-178.94 134.83,-178.84 134.57,-178.74 134.57,-178.74 134.57,-178.74 131.48,-178.40 128.39,-178.06 126.58,-177.84 124.78,-177.61 121.99,-177.10 119.21,-176.59 115.97,-175.83 112.73,-175.07 108.71,-173.95 104.68,-172.82 100.29,-171.58 95.91,-170.33 91.70,-169.06 87.49,-167.78 82.75,-166.34 78.01,-164.90 73.63,-163.48 69.25,-162.07 64.61,-160.45 59.96,-158.84 55.65,-157.19 51.34,-155.55 47.47,-153.87 43.61,-152.19 39.87,-150.56 36.13,-148.93 32.64,-147.20 29.14,-145.48 25.35,-143.33 21.57,-141.19 18.41,-138.85 15.25,-136.51 12.22,-133.75 9.20,-130.99 7.58,-129.02 5.97,-127.04 4.12,-124.42 2.27,-121.79 0.13,-118.06 -2.00,-114.32 -4.08,-109.49 -6.16,-104.66 -7.91,-98.52 -9.67,-92.37 -11.18,-83.91 -12.69,-75.45 -12.73,-69.37 -12.78,-63.28 -12.24,-56.85 -11.70,-50.42 -10.38,-43.91 -9.06,-37.40 -6.90,-30.40 -4.74,-23.39 -2.38,-16.16 -0.03,-8.92 0.16,-7.51 0.35,-6.10 0.96,-3.21 1.58,-0.31 1.59,-0.11 1.61,0.07 1.58,0.26 1.54,0.45 1.47,0.63 1.39,0.81 1.27,0.97 1.15,1.12 1.00,1.24 0.85,1.37 0.67,1.45 0.50,1.53 0.31,1.57 0.12,1.61 -0.07,1.60 -0.26,1.59 -0.45,1.53 -0.64,1.48 -0.81,1.38 -0.97,1.28 -1.11,1.14 -1.25,1.01 -1.36,0.84 -1.46,0.68 -1.52,0.49 -1.58,0.31 -1.58,0.31 L -1.58,0.31 Z"></path></g><g transform="translate(317.28253173828125 62.484283447265625) rotate(0 10.23565673828125 19.81293487548828)" stroke="none" fill="#000000"><path d="M 1.09,-2.02 Q 1.09,-2.02 2.63,-1.14 4.16,-0.26 5.68,0.64 7.20,1.55 8.73,2.51 10.26,3.48 11.76,4.41 13.26,5.34 14.71,6.20 16.16,7.07 17.35,7.67 18.54,8.28 19.78,8.86 21.02,9.45 21.91,10.86 22.81,12.27 22.23,13.58 21.65,14.88 20.98,16.43 20.31,17.98 19.94,19.08 19.58,20.18 18.94,22.04 18.30,23.91 17.97,25.12 17.65,26.32 17.29,27.65 16.93,28.97 16.62,30.25 16.30,31.53 16.01,32.81 15.71,34.09 15.50,35.22 15.28,36.35 14.94,38.16 14.60,39.97 14.44,40.39 14.29,40.81 14.00,41.16 13.72,41.51 13.34,41.75 12.96,41.99 12.53,42.09 12.09,42.20 11.64,42.16 11.19,42.12 10.78,41.94 10.37,41.76 10.04,41.46 9.70,41.16 9.49,40.77 9.27,40.38 9.18,39.93 9.10,39.49 9.16,39.05 9.23,38.60 9.43,38.20 9.63,37.80 9.95,37.48 10.27,37.17 10.67,36.97 11.08,36.77 11.52,36.71 11.97,36.66 12.41,36.74 12.85,36.83 13.24,37.05 13.63,37.28 13.93,37.61 14.22,37.95 14.40,38.36 14.57,38.77 14.61,39.22 14.64,39.67 14.53,40.11 14.42,40.54 14.18,40.92 13.93,41.30 13.58,41.57 13.23,41.85 12.81,42.01 12.39,42.16 11.94,42.17 11.49,42.18 11.06,42.05 10.63,41.91 10.27,41.65 9.90,41.38 9.64,41.02 9.38,40.65 9.25,40.22 9.12,39.79 9.14,39.34 9.15,38.89 9.15,38.89 9.15,38.89 9.52,37.09 9.89,35.29 10.13,34.09 10.38,32.89 10.66,31.59 10.94,30.28 11.24,28.94 11.54,27.61 11.85,26.27 12.17,24.93 12.49,23.57 12.82,22.20 13.48,20.19 14.13,18.17 14.68,16.95 15.23,15.73 15.70,14.74 16.17,13.74 17.09,12.27 18.02,10.79 18.28,12.18 18.54,13.56 17.50,12.81 16.45,12.05 15.25,11.34 14.05,10.62 12.58,9.75 11.11,8.88 9.59,7.98 8.07,7.08 6.55,6.19 5.03,5.30 3.53,4.47 2.04,3.63 0.47,2.83 -1.09,2.02 -1.32,1.86 -1.55,1.70 -1.73,1.49 -1.91,1.28 -2.04,1.03 -2.16,0.78 -2.22,0.51 -2.29,0.24 -2.28,-0.03 -2.28,-0.31 -2.21,-0.57 -2.14,-0.84 -2.01,-1.09 -1.87,-1.33 -1.69,-1.54 -1.50,-1.74 -1.27,-1.90 -1.04,-2.05 -0.78,-2.15 -0.51,-2.24 -0.24,-2.27 0.03,-2.30 0.30,-2.26 0.58,-2.22 0.84,-2.12 1.10,-2.02 1.10,-2.02 L 1.09,-2.02 Z"></path></g><g transform="translate(403.146728515625 20.775802612304688) rotate(0 77.013671875 61.18950653076172)" stroke="none" fill="#000000"><path d="M 0.38,1.51 Q 0.38,1.51 -2.20,2.13 -4.80,2.75 -7.30,3.77 -9.81,4.79 -12.21,6.26 -14.61,7.72 -17.34,10.17 -20.07,12.61 -22.37,15.13 -24.67,17.65 -26.71,20.41 -28.75,23.18 -30.42,25.86 -32.08,28.54 -33.22,31.16 -34.37,33.78 -34.91,36.19 -35.45,38.60 -35.28,40.54 -35.10,42.49 -33.67,44.79 -32.25,47.10 -29.04,50.04 -25.83,52.97 -21.78,56.04 -17.73,59.10 -14.60,61.44 -11.46,63.79 -9.84,65.25 -8.21,66.70 -6.91,67.95 -5.60,69.20 -5.39,70.57 -5.18,71.94 -6.23,74.60 -7.28,77.25 -8.89,80.68 -10.49,84.12 -11.81,87.40 -13.13,90.69 -13.91,93.51 -14.68,96.32 -14.87,99.05 -15.07,101.79 -14.72,104.10 -14.38,106.42 -13.37,108.32 -12.37,110.21 -10.45,112.13 -8.54,114.04 -6.11,115.66 -3.68,117.28 -1.02,118.58 1.62,119.88 4.42,120.75 7.22,121.62 9.95,122.25 12.67,122.89 15.13,123.38 17.59,123.88 19.49,124.13 21.40,124.38 23.06,124.58 24.72,124.78 26.28,125.01 27.84,125.24 29.59,125.56 31.35,125.89 33.87,126.38 36.40,126.87 39.38,127.38 42.36,127.89 45.98,128.41 49.61,128.94 53.53,129.41 57.45,129.89 61.51,130.36 65.56,130.82 70.18,131.10 74.79,131.38 79.13,131.50 83.47,131.62 88.15,131.61 92.83,131.60 97.74,131.51 102.66,131.43 107.77,131.26 112.87,131.10 117.66,130.70 122.46,130.30 126.41,129.77 130.36,129.23 134.15,128.58 137.95,127.93 141.35,127.21 144.75,126.49 147.57,125.74 150.38,124.98 152.91,124.15 155.45,123.31 157.39,122.55 159.32,121.79 161.15,120.84 162.99,119.89 164.87,118.69 166.76,117.49 168.80,115.94 170.85,114.38 172.99,112.12 175.13,109.85 177.01,107.46 178.89,105.08 180.71,102.22 182.52,99.37 183.91,96.64 185.29,93.91 186.39,90.70 187.48,87.49 188.23,84.09 188.97,80.69 189.36,77.57 189.75,74.46 189.80,71.26 189.85,68.06 189.31,64.91 188.77,61.76 187.52,58.46 186.26,55.17 183.95,51.72 181.63,48.28 178.71,44.90 175.78,41.52 172.29,38.20 168.80,34.88 165.26,32.00 161.72,29.12 157.57,26.55 153.42,23.98 148.61,21.60 143.79,19.23 138.86,17.15 133.93,15.06 128.45,13.01 122.97,10.95 117.98,9.18 113.00,7.42 107.85,5.59 102.70,3.77 98.17,2.32 93.65,0.86 90.00,-0.18 86.36,-1.22 83.23,-2.05 80.10,-2.88 78.17,-3.33 76.23,-3.78 73.41,-4.43 70.58,-5.08 68.71,-5.38 66.84,-5.69 65.57,-5.76 64.29,-5.83 62.59,-5.79 60.89,-5.76 59.39,-5.73 57.89,-5.70 56.00,-5.69 54.11,-5.67 52.82,-5.78 51.53,-5.89 49.65,-6.25 47.77,-6.61 45.44,-7.10 43.12,-7.58 40.89,-7.92 38.67,-8.26 36.77,-8.43 34.88,-8.60 33.39,-8.64 31.90,-8.68 30.62,-8.66 29.33,-8.64 28.21,-8.57 27.09,-8.51 25.93,-8.42 24.77,-8.32 23.39,-7.96 22.00,-7.59 20.86,-6.80 19.73,-6.00 18.13,-5.54 16.53,-5.09 15.09,-4.93 13.64,-4.78 12.50,-4.39 11.36,-3.99 9.90,-3.36 8.44,-2.72 7.26,-2.11 6.09,-1.51 4.98,-0.97 3.87,-0.43 2.57,0.15 1.26,0.74 -0.09,1.46 -1.45,2.18 -2.36,3.03 -3.26,3.87 -3.78,4.71 -4.30,5.55 -4.59,5.86 -4.88,6.17 -5.24,6.39 -5.60,6.62 -6.00,6.76 -6.40,6.89 -6.82,6.93 -7.24,6.97 -7.66,6.90 -8.07,6.83 -8.46,6.67 -8.85,6.51 -9.19,6.25 -9.53,6.00 -9.80,5.68 -10.07,5.35 -10.25,4.97 -10.43,4.59 -10.52,4.17 -10.61,3.76 -10.59,3.34 -10.58,2.92 -10.46,2.51 -10.35,2.10 -10.14,1.74 -9.93,1.37 -7.13,0.06 -4.34,-1.23 -3.87,-1.37 -3.41,-1.51 -2.92,-1.49 -2.43,-1.48 -1.98,-1.31 -1.52,-1.13 -1.14,-0.83 -0.76,-0.52 -0.50,-0.10 -0.24,0.30 -0.13,0.77 -0.02,1.25 -0.06,1.73 -0.10,2.22 -0.30,2.66 -0.49,3.11 -0.82,3.47 -1.15,3.83 -1.58,4.07 -2.00,4.30 -2.48,4.39 -2.96,4.48 -3.44,4.41 -3.93,4.34 -4.36,4.12 -4.80,3.90 -5.14,3.56 -5.48,3.21 -5.69,2.77 -5.91,2.33 -5.97,1.85 -6.03,1.36 -5.94,0.89 -5.84,0.41 -5.60,-0.00 -5.36,-0.43 -4.99,-0.75 -4.63,-1.07 -4.18,-1.26 -3.73,-1.45 -3.24,-1.49 -2.75,-1.52 -2.28,-1.40 -1.81,-1.28 -1.40,-1.02 -0.99,-0.75 -0.69,-0.37 -0.39,0.01 -0.22,0.46 -0.06,0.92 -0.05,1.41 -0.04,1.90 -0.18,2.36 -0.33,2.83 -0.62,3.22 -0.91,3.62 -1.30,3.90 -1.70,4.18 -1.70,4.18 -1.70,4.18 -3.00,4.87 -4.30,5.55 -4.59,5.86 -4.88,6.17 -5.24,6.39 -5.60,6.62 -6.00,6.76 -6.40,6.89 -6.82,6.93 -7.24,6.97 -7.66,6.90 -8.07,6.83 -8.46,6.67 -8.85,6.51 -9.19,6.25 -9.53,6.00 -9.80,5.68 -10.07,5.35 -10.25,4.97 -10.43,4.59 -10.52,4.18 -10.61,3.76 -10.59,3.34 -10.58,2.92 -10.46,2.51 -10.35,2.10 -10.14,1.74 -9.93,1.37 -9.50,0.78 -9.08,0.20 -8.12,-0.88 -7.16,-1.97 -5.90,-2.81 -4.63,-3.66 -3.14,-4.45 -1.65,-5.25 0.10,-6.02 1.87,-6.78 3.18,-7.43 4.50,-8.07 5.87,-8.66 7.23,-9.26 8.66,-9.75 10.09,-10.24 11.13,-10.46 12.17,-10.68 13.29,-10.73 14.42,-10.79 15.51,-10.83 16.60,-10.87 17.85,-11.35 19.11,-11.83 20.75,-12.31 22.39,-12.79 23.50,-12.86 24.61,-12.92 25.85,-12.91 27.09,-12.91 28.28,-12.84 29.47,-12.77 30.81,-12.66 32.15,-12.55 33.65,-12.41 35.14,-12.26 37.11,-12.14 39.07,-12.03 41.40,-11.89 43.74,-11.75 46.09,-11.54 48.44,-11.33 50.25,-11.16 52.05,-10.99 53.20,-10.85 54.36,-10.71 56.29,-10.52 58.22,-10.34 59.72,-10.08 61.22,-9.82 62.99,-9.47 64.76,-9.11 66.07,-8.82 67.37,-8.52 69.28,-8.12 71.18,-7.72 74.04,-7.09 76.90,-6.45 78.83,-5.93 80.77,-5.42 83.93,-4.58 87.09,-3.75 90.77,-2.69 94.45,-1.63 99.01,-0.16 103.57,1.30 108.72,3.12 113.87,4.94 118.88,6.72 123.89,8.49 129.42,10.57 134.95,12.64 139.96,14.76 144.96,16.88 149.88,19.31 154.81,21.75 159.09,24.42 163.38,27.08 166.99,30.03 170.61,32.98 174.19,36.39 177.77,39.80 180.79,43.31 183.82,46.82 186.27,50.52 188.71,54.23 190.04,57.77 191.36,61.32 191.92,64.71 192.48,68.10 192.41,71.44 192.35,74.78 191.95,78.02 191.54,81.25 190.75,84.79 189.96,88.33 188.80,91.71 187.64,95.09 186.19,97.94 184.74,100.78 182.85,103.74 180.96,106.70 179.00,109.18 177.04,111.67 174.74,114.07 172.44,116.47 170.30,118.09 168.17,119.72 166.18,120.97 164.20,122.23 162.24,123.23 160.29,124.24 158.28,125.03 156.27,125.81 153.67,126.67 151.06,127.53 148.18,128.30 145.30,129.07 141.85,129.80 138.39,130.53 134.56,131.19 130.72,131.86 126.70,132.40 122.68,132.95 117.82,133.36 112.96,133.77 107.83,133.93 102.71,134.10 97.77,134.20 92.84,134.29 88.12,134.32 83.40,134.34 79.02,134.24 74.63,134.13 69.94,133.87 65.26,133.61 61.19,133.18 57.12,132.75 53.16,132.31 49.21,131.88 45.54,131.41 41.88,130.95 38.87,130.52 35.85,130.10 33.26,129.72 30.66,129.33 28.92,128.96 27.19,128.59 25.69,128.22 24.20,127.85 22.59,127.50 20.98,127.15 19.02,126.81 17.06,126.47 14.57,125.97 12.07,125.47 9.25,124.82 6.43,124.16 3.44,123.23 0.45,122.29 -2.36,120.91 -5.18,119.52 -7.83,117.74 -10.47,115.96 -12.63,113.74 -14.80,111.52 -15.97,109.20 -17.15,106.89 -17.55,104.25 -17.95,101.61 -17.75,98.59 -17.56,95.57 -16.80,92.57 -16.04,89.57 -14.77,86.17 -13.50,82.77 -12.05,79.37 -10.60,75.97 -9.64,73.36 -8.68,70.76 -9.33,69.71 -9.97,68.66 -11.51,67.28 -13.04,65.89 -16.18,63.55 -19.32,61.20 -23.47,58.06 -27.62,54.91 -31.06,51.69 -34.50,48.47 -36.10,45.64 -37.70,42.81 -37.87,40.43 -38.04,38.05 -37.43,35.38 -36.81,32.72 -35.59,29.93 -34.36,27.13 -32.64,24.35 -30.93,21.58 -28.81,18.69 -26.69,15.81 -24.30,13.18 -21.92,10.55 -19.00,7.94 -16.09,5.32 -13.51,3.73 -10.92,2.13 -8.23,0.99 -5.54,-0.13 -2.96,-0.82 -0.38,-1.51 -0.19,-1.53 -0.01,-1.56 0.17,-1.54 0.36,-1.51 0.54,-1.45 0.71,-1.38 0.87,-1.28 1.02,-1.17 1.15,-1.03 1.27,-0.89 1.36,-0.72 1.45,-0.56 1.50,-0.38 1.54,-0.19 1.55,-0.01 1.55,0.17 1.50,0.36 1.46,0.54 1.37,0.71 1.29,0.87 1.16,1.02 1.04,1.16 0.88,1.27 0.73,1.37 0.55,1.44 0.38,1.51 0.38,1.51 L 0.38,1.51 Z"></path></g><g transform="translate(426.11517333984375 68.81637573242188) rotate(0 80 12.5)"><text x="0" y="18" font-family="Virgil, Segoe UI Emoji" font-size="20px" fill="#000000" text-anchor="start" style="white-space: pre;" direction="ltr">Router/Internet</text></g><g transform="translate(20.6708984375 309.0169219970703) rotate(0 75 10)"><text x="0" y="14" font-family="Virgil, Segoe UI Emoji" font-size="16px" fill="#000000" text-anchor="start" style="white-space: pre;" direction="ltr">Baremetal (Server)</text></g><g transform="translate(86.71685791015625 384.9871368408203) rotate(0 35.5 10)"><text x="0" y="14" font-family="Virgil, Segoe UI Emoji" font-size="16px" fill="#000000" text-anchor="start" style="white-space: pre;" direction="ltr">VM (KVM)</text></g><g transform="translate(106.58544921875 424.89198303222656) rotate(0 65 10)"><text x="0" y="14" font-family="Virgil, Segoe UI Emoji" font-size="16px" fill="#000000" text-anchor="start" style="white-space: pre;" direction="ltr">Root Namespace</text></g><g stroke-linecap="round" transform="translate(236.528564453125 600.7499847412109) rotate(0 29.315765380859375 13.64312744140625)"><path d="M-1.99 -0.56 C13 -0.35, 27.6 0.74, 58.85 -1.73 M-0.9 -0.49 C21.47 -0.02, 42.89 0.97, 59.2 -0.78 M60.49 -0.9 C57.72 9.33, 58.05 18.05, 58.24 25.33 M57.68 -0.72 C59.28 6.98, 57.62 12.52, 58.12 27.1 M57.93 26.48 C45.37 28.71, 32.72 26.49, -0.51 27.33 M57.95 28.04 C39.05 26.87, 17.78 28.39, 0.46 26.64 M0.49 28.34 C0.3 20.01, -1.9 12.13, 0.19 0.19 M-0.02 28.23 C1.13 21.52, 0.21 15.33, 0.58 -0.56" stroke="#000000" stroke-width="1" fill="none"></path></g><g transform="translate(239.41705322265625 605.5959320068359) rotate(0 22.5 10)"><text x="22.5" y="14" font-family="Virgil, Segoe UI Emoji" font-size="16px" fill="#000000" text-anchor="middle" style="white-space: pre;" direction="ltr">ceth0</text></g><g stroke-linecap="round" transform="translate(641.4818725585938 601.2913665771484) rotate(0 33.2960205078125 12.84222412109375)"><path d="M0.38 1.71 C22.77 -0.56, 49.25 -1.1, 68 0.71 M0.28 -0.52 C25.98 -0.82, 51.94 -1.57, 66.42 -0.68 M66.31 0.15 C68.27 8.35, 67.27 19.39, 67.24 26.84 M66.43 -0.66 C66.83 7.29, 65.65 12.54, 66.84 25.13 M65.68 25.45 C46.99 27.35, 26.97 24.71, -1.82 27.11 M65.82 26.45 C48.33 24.37, 29.28 26.02, -0.1 26.25 M0.4 26.06 C-0.51 14.89, 2.07 5.77, 0.61 1.42 M1 24.82 C-0.11 18.33, -0.21 10.44, -0.87 -0.09" stroke="#000000" stroke-width="1" fill="none"></path></g><g transform="translate(652.5452880859375 606.2790069580078) rotate(0 19 10)"><text x="19" y="14" font-family="Virgil, Segoe UI Emoji" font-size="16px" fill="#000000" text-anchor="middle" style="white-space: pre;" direction="ltr">ceth1</text></g><g stroke-linecap="round" transform="translate(226.284912109375 681.6192474365234) rotate(0 37.1331787109375 16.5361328125)"><path d="M-1.99 -0.14 C17.13 1.04, 33.05 1.74, 75.36 1.54 M-0.05 0.53 C29.13 0.02, 58.03 -0.57, 75.22 0.27 M75.27 -1.43 C74.48 10.09, 74.8 20.64, 75.45 33.79 M74.84 -0.39 C73.76 11.48, 73.53 23.28, 73.56 32.94 M73.73 31.17 C54.59 34.82, 31.87 31.22, -0.21 33.91 M73.43 33.08 C50.83 32.36, 26.39 32.79, 1 32.16 M1.47 33.45 C0.9 21.25, -1.79 5.72, 0.15 1.43 M0.58 33.74 C-0.5 24.15, 1 13.82, -0.52 -0.02" stroke="#000000" stroke-width="1" fill="none"></path></g><g stroke-linecap="round" transform="translate(640.2015380859375 677.1543426513672) rotate(0 37.1331787109375 16.5361328125)"><path d="M0.84 0.43 C13.9 0.46, 28.75 0.1, 75.17 -1.72 M-0.91 0.92 C21.9 -1.62, 43.63 -0.55, 74.79 0.56 M75.7 -0.25 C72.77 6.71, 75.19 15.74, 72.84 34.25 M74.24 -0.4 C73.95 12.54, 73.88 25.96, 73.88 33.63 M75.2 31.25 C53.95 34.79, 32.71 33.95, 1.66 32.2 M74.24 32.91 C53.64 32.73, 34.51 33.41, -0.43 33.88 M1.26 33.5 C1.57 20.32, 0.92 8.47, -0.86 1.03 M-0.33 32.98 C0.13 20.53, -0.69 6.91, -0.67 -0.37" stroke="#000000" stroke-width="1" fill="none"></path></g><g transform="translate(240.8531494140625 688.0904388427734) rotate(0 22.5 10)"><text x="22.5" y="14" font-family="Virgil, Segoe UI Emoji" font-size="16px" fill="#000000" text-anchor="middle" style="white-space: pre;" direction="ltr">veth0</text></g><g transform="translate(658.334716796875 683.6904754638672) rotate(0 19 10)"><text x="19" y="14" font-family="Virgil, Segoe UI Emoji" font-size="16px" fill="#000000" text-anchor="middle" style="white-space: pre;" direction="ltr">veth1</text></g><g stroke-linecap="round"><g transform="translate(262.38848876953125 631.2439422607422) rotate(0 0.24125719978809457 26.58480364978311)"><path d="M0.73 -0.86 C0.54 8.03, -0.43 45.01, -0.22 54.03" stroke="#000000" stroke-width="1.5" fill="none" stroke-dasharray="1.5 7"></path></g></g><g stroke-linecap="round"><g transform="translate(674.3274536132812 632.5397186279297) rotate(0 -0.20803482234475723 22.87768361270429)"><path d="M-1.15 -1.11 C-0.86 6.58, 0.41 38.93, 0.74 46.86" stroke="#000000" stroke-width="1.5" fill="none" stroke-dasharray="1.5 7"></path></g></g><g stroke-linecap="round" transform="translate(431.0218505859375 683.0459442138672) rotate(0 45.552764892578125 11.9404296875)"><path d="M0.26 1.93 C28.3 1.48, 57.7 1.78, 91.11 -1.99 M0.05 -0.67 C22.83 -0.3, 44.66 1.46, 91.99 0.17 M89.21 -1.35 C89.84 4.85, 91.05 11.69, 92.01 23.46 M91.83 0.03 C92.15 8.72, 90.73 16.06, 91.54 23.39 M89.29 24.91 C54.96 23.93, 19.37 24.08, -0.38 23.04 M91.05 24.41 C62.98 24.8, 35.42 23.9, 0 24.77 M-0.25 25.81 C-0.53 15.44, -1 6.81, 1.48 -1.2 M-0.11 24.67 C-0.26 18.09, 0.24 13.11, 0.6 -0.18" stroke="#000000" stroke-width="1" fill="none"></path></g><g stroke-linecap="round"><g transform="translate(304.366455078125 697.8200531005859) rotate(0 59.41359480232467 0.2395973505685447)"><path d="M1.04 0.19 C20.74 0.33, 98.98 0.16, 118.69 0.27 M0.13 -0.75 C19.62 -0.45, 97.93 0.8, 117.73 1.23" stroke="#000000" stroke-width="1" fill="none"></path></g></g><g stroke-linecap="round"><g transform="translate(639.2868041992188 692.9891815185547) rotate(0 -56.15281183793206 0.6224384196056008)"><path d="M0.23 0.45 C-18.43 0.88, -93.03 1.66, -111.59 1.61 M-1.12 -0.36 C-19.96 -0.19, -94.11 -0.38, -112.53 -0.15" stroke="#000000" stroke-width="1" fill="none"></path></g></g><g stroke-linecap="round" transform="translate(377.78338623046875 322.1413116455078) rotate(0 73.62600708007812 12.281387329101562)"><path d="M-1.13 0.25 C44.79 -0.62, 90.01 -0.46, 146.83 -0.69 M-0.43 -0.56 C42.03 -1.7, 82.64 -1.45, 147.12 0.53 M146.75 -0.73 C149.17 8.16, 145.44 14.52, 146.26 23.95 M147.34 -0.37 C147.19 7.8, 147.59 16.87, 148.22 25.49 M146.32 25.01 C112.41 24.29, 75.58 26.37, -1.83 24.35 M146.51 24.74 C98.12 23.99, 48.15 24.82, 0.09 25.08 M-1.48 26.54 C0.04 14.33, -1.01 6.3, -1.94 1.88 M0.9 24.42 C-0.23 18.25, 0.12 14.11, 0.89 0.63" stroke="#000000" stroke-width="1" fill="none"></path></g><g transform="translate(386.16876220703125 326.92442321777344) rotate(0 22.5 10)"><text x="0" y="14" font-family="Virgil, Segoe UI Emoji" font-size="16px" fill="#000000" text-anchor="start" style="white-space: pre;" direction="ltr">virbr0</text></g><g stroke-linecap="round" transform="translate(415.26849365234375 369.57020568847656) rotate(0 55.72418212890625 10.389907836914062)"><path d="M-0.65 -1.34 C25.35 0.09, 52.08 -0.19, 111 1.97 M0.49 0.91 C30.49 0.2, 61.17 -0.91, 110.71 0.31 M113.12 0.15 C109.53 8.28, 112.11 14.72, 112.53 20.63 M110.69 -0.57 C110.47 5.98, 110.86 13.14, 111.55 21.48 M113.07 21.87 C86.42 19.46, 63.73 19.56, -1.9 20.27 M110.87 20.93 C87.29 20.2, 62.01 19.49, -0.14 19.8 M1.59 18.86 C-0.06 11.4, 0.4 6.3, -1.84 1.08 M0.24 19.96 C-0.39 14.42, -0.93 6.63, -0.7 -0.53" stroke="#000000" stroke-width="1" fill="none"></path></g><g transform="translate(442.95648193359375 370.07159423828125) rotate(0 22.5 10)"><text x="22.5" y="14" font-family="Virgil, Segoe UI Emoji" font-size="16px" fill="#000000" text-anchor="middle" style="white-space: pre;" direction="ltr">vnet0</text></g><g stroke-linecap="round" transform="translate(441.28070068359375 458.2909393310547) rotate(0 32.012451171875 11.46014404296875)"><path d="M0.1 -0.79 C14.4 -1.48, 25.38 -0.78, 65.79 0.21 M1 -0.18 C23.2 -0.06, 48.17 -0.12, 64.62 0.98 M63.76 -0.56 C64.83 5.87, 65.55 11.28, 62.85 23.91 M64.9 -0.91 C64.25 5.95, 63.44 12.03, 63.54 23.9 M64.81 21.64 C47.26 21.99, 29.13 23.93, 0.9 24.3 M63.89 23.11 C46.26 23.14, 29.24 23.67, 0.17 22.33 M1.37 24.83 C-1.56 14.97, -1.08 4.63, -0.71 1.84 M-0.7 22.04 C0.58 14.94, -0.73 7.95, -0.58 0.35" stroke="#000000" stroke-width="1" fill="none"></path></g><g transform="translate(449.34149169921875 458.38697814941406) rotate(0 24 10)"><text x="24" y="14" font-family="Virgil, Segoe UI Emoji" font-size="16px" fill="#000000" text-anchor="middle" style="white-space: pre;" direction="ltr">enp1s0</text></g><g transform="translate(398.24505615234375 436.1240692138672) rotate(0 84.5 9.5)"><text x="84.5" y="15" font-family="Cascadia, Segoe UI Emoji" font-size="16px" fill="#000000" text-anchor="middle" style="white-space: pre;" direction="ltr">192.168.122.130/24</text></g><g stroke-linecap="round"><g transform="translate(470.14727783203125 388.3783416748047) rotate(0 2.043044420704234 21.87066321112215)"><path d="M0.93 -0.57 C1.29 6.64, 2.52 37.18, 3.16 44.31" stroke="#000000" stroke-width="1.5" fill="none" stroke-dasharray="1.5 7"></path></g></g><g stroke-linecap="round"><g transform="translate(494.76861572265625 327.8916778564453) rotate(0 0.824628778919589 20.552704951539653)"><path d="M0.38 -0.53 C0.55 6.59, 1.1 34.58, 1.27 41.64" stroke="#000000" stroke-width="1.5" fill="none" stroke-dasharray="1.5 7"></path></g></g><g stroke-linecap="round" transform="translate(488.21112060546875 329.39601135253906) rotate(0 6.755340576171875 5.0891265869140625)"><path d="M3.68 0.24 C4.71 -0.54, 6.49 -1.03, 7.96 -0.84 C9.42 -0.66, 11.42 0.31, 12.47 1.33 C13.51 2.35, 14.21 3.98, 14.22 5.29 C14.23 6.6, 13.7 8.38, 12.53 9.18 C11.36 9.98, 8.78 9.89, 7.22 10.07 C5.65 10.26, 4.14 10.91, 3.14 10.28 C2.13 9.64, 1.68 7.63, 1.19 6.28 C0.71 4.93, -0.34 3.29, 0.24 2.17 C0.82 1.05, 4.05 -0.29, 4.68 -0.45 C5.31 -0.62, 4.11 0.91, 4.01 1.2 M10.97 0.34 C12.2 0.42, 11.19 0.65, 11.66 1.87 C12.13 3.09, 13.99 6.26, 13.79 7.66 C13.59 9.05, 11.89 9.9, 10.46 10.23 C9.03 10.56, 6.64 10.02, 5.2 9.61 C3.76 9.21, 2.47 8.69, 1.82 7.82 C1.18 6.96, 1.57 5.38, 1.33 4.43 C1.09 3.47, -0.03 2.62, 0.37 2.09 C0.77 1.56, 2.29 1.73, 3.7 1.25 C5.12 0.77, 7.73 -0.7, 8.85 -0.78 C9.97 -0.85, 10.18 0.6, 10.43 0.79" stroke="#000000" stroke-width="1" fill="none"></path></g><g transform="translate(212.177978515625 239.32057189941406) rotate(0 70.5 9.5)"><text x="0" y="15" font-family="Cascadia, Segoe UI Emoji" font-size="16px" fill="#000000" text-anchor="start" style="white-space: pre;" direction="ltr">192.168.2.21/24</text></g><g transform="translate(211.39910888671875 577.2929534912109) rotate(0 65.5 9.5)"><text x="0" y="15" font-family="Cascadia, Segoe UI Emoji" font-size="16px" fill="#000000" text-anchor="start" style="white-space: pre;" direction="ltr">172.20.0.50/16</text></g><g transform="translate(617.7205810546875 579.4053192138672) rotate(0 65.5 9.5)"><text x="0" y="15" font-family="Cascadia, Segoe UI Emoji" font-size="16px" fill="#000000" text-anchor="start" style="white-space: pre;" direction="ltr">172.20.0.60/16</text></g><g transform="translate(377.15594482421875 303.3015594482422) rotate(0 75 9.5)"><text x="0" y="15" font-family="Cascadia, Segoe UI Emoji" font-size="16px" fill="#000000" text-anchor="start" style="white-space: pre;" direction="ltr">192.168.122.1/24</text></g><g transform="translate(420.47003173828125 637.0012664794922) rotate(0 61 19)"><text x="0" y="15" font-family="Cascadia, Segoe UI Emoji" font-size="16px" fill="#000000" text-anchor="start" style="white-space: pre;" direction="ltr"></text><text x="0" y="34" font-family="Cascadia, Segoe UI Emoji" font-size="16px" fill="#000000" text-anchor="start" style="white-space: pre;" direction="ltr">172.20.0.1/16</text></g></svg>